<mxfile host="app.diagrams.net" modified="2023-09-20T18:26:50.614Z" agent="Mozilla/5.0 (X11; Linux x86_64; rv:109.0) Gecko/20100101 Firefox/114.0" version="21.8.0" etag="rigbrN8lmr-TcooFF-42" type="github">
  <diagram name="PÃ¡gina-1" id="VJFlqHJgBhoMDS0881lg">
    <mxGraphModel>
      <root>
        <mxCell id="0" />
        <mxCell id="1" parent="0" />
      </root>
    </mxGraphModel>
  </diagram>
</mxfile>
